# xmcd CD database file
#
# Track frame offsets:
#	150
#	20657
#	43097
#	63522
#
# Disc length: 1142 seconds
#
# Revision: 2
# Processed by: cddbd v1.5.1PL0 Copyright (c) Steve Scherf et al.
# Submitted via: CDex 1.51
#
DISCID=32047404
DTITLE=跡部景吾 - ｉｎｓｉｇｈｔ
DYEAR=2003
DGENRE=Anime
TTITLE0=ｉｎｓｉｇｈｔ
TTITLE1=トラソルの鳥篭
TTITLE2=ｉｎｓｉｇｈｔ（Ｏｒｉｇｉｎａｌ　Ｋａｒａｏｋｅ）
TTITLE3=トラソルの鳥篭（Ｏｒｉｇｉｎａｌ　Ｋａｒａｏｋｅ）
EXTD=YEAR: 2003
EXTT0=
EXTT1=
EXTT2=
EXTT3=
PLAYORDER=
